<svg width="700" height="460" viewBox="0 0 700 460" fill="none" xmlns="http://www.w3.org/2000/svg">
  <rect width="700" height="460" rx="32" fill="#FFE8BF"/>
  <circle cx="120" cy="120" r="64" fill="#FFD48C"/>
  <circle cx="590" cy="340" r="86" fill="#FFD48C"/>
  <text x="50" y="80" fill="#7C2D12" font-family="Inter, sans-serif" font-size="38" font-weight="700">Park Fetch Time</text>
  <text x="50" y="122" fill="#9A3412" font-family="Inter, sans-serif" font-size="23">Dogs chasing toys and having fun.</text>
  <rect x="46" y="170" width="608" height="230" rx="24" fill="#FFF6E5"/>
  <path d="M190 312C190 258 232 216 286 216H414C468 216 510 258 510 312V328H190V312Z" fill="#F59E0B" fill-opacity="0.28"/>
  <circle cx="305" cy="285" r="14" fill="#1F2937"/>
  <circle cx="395" cy="285" r="14" fill="#1F2937"/>
  <circle cx="299" cy="279" r="4" fill="#FFF"/>
  <circle cx="389" cy="279" r="4" fill="#FFF"/>
  <circle cx="350" cy="314" r="18" fill="#FED7AA"/>
  <path d="M340 312L350 322L360 312" stroke="#B45309" stroke-width="4" stroke-linecap="round" stroke-linejoin="round"/>
  <circle cx="164" cy="349" r="18" fill="#FB923C"/>
</svg>
